<?xml version="1.0" encoding="utf-8"?>
<!-- Generator: Adobe Illustrator 22.1.0, SVG Export Plug-In . SVG Version: 6.00 Build 0)  -->
<svg xmlns="http://www.w3.org/2000/svg" xmlns:xlink="http://www.w3.org/1999/xlink" version="1.1" id="Layer_1" x="0px" y="0px" viewBox="0 0 256 256" style="enable-background:new 0 0 256 256;" xml:space="preserve" width="512" height="512">
<style type="text/css">
	.st0{fill:#F9CFCF;}
	.st1{fill:#3762CC;}
	.st2{fill:#6BDDDD;}
	.st3{fill:#E0EBFC;}
	.st4{fill:#EAA97D;}
	.st5{fill:#A4C9FF;}
	.st6{fill:#F9A7A7;}
	.st7{fill:#4671C6;}
	.st8{fill:#FFEA92;}
	.st9{fill:#B9BEFC;}
	.st10{fill:#3962CA;}
	.st11{fill:#DDA073;}
</style>
<g>
	<g>
		<g>
			<path class="st5" d="M197.387,214.793H93.044c-1.562,0-2.828-1.266-2.828-2.828v-7.343c0-1.562,1.266-2.828,2.828-2.828h104.343     c1.562,0,2.828,1.266,2.828,2.828v7.343C200.215,213.527,198.949,214.793,197.387,214.793z"/>
		</g>
	</g>
	<g>
		<g>
			<path class="st7" d="M189.215,234.793h-88c-3.314,0-6-2.686-6-6v-14h100v14C195.215,232.107,192.529,234.793,189.215,234.793z"/>
		</g>
	</g>
	<g>
		<g>
			<rect x="110.215" y="57.793" class="st5" width="70" height="144"/>
		</g>
	</g>
	<g>
		<g>
			<path class="st3" d="M200.215,193.793h-20v-136h0c11.046,0,20,8.954,20,20V193.793z"/>
		</g>
	</g>
	<g>
		<g>
			<path class="st3" d="M90.215,193.793h20v-136h0c-11.046,0-20,8.954-20,20V193.793z"/>
		</g>
	</g>
	<g>
		<g>
			<path class="st1" d="M180.215,203.793h-70c-1.104,0-2-0.896-2-2v-144c0-1.104,0.896-2,2-2h70c1.104,0,2,0.896,2,2v144     C182.215,202.897,181.32,203.793,180.215,203.793z M112.215,199.793h66v-140h-66V199.793z"/>
		</g>
	</g>
	<g>
		<g>
			<path class="st1" d="M200.215,195.793h-20c-1.104,0-2-0.896-2-2v-136c0-1.104,0.896-2,2-2c12.131,0,22,9.869,22,22v116     C202.215,194.897,201.32,195.793,200.215,195.793z M182.215,191.793h16v-114c0-9.249-7.013-16.892-16-17.89V191.793z"/>
		</g>
	</g>
	<g>
		<g>
			<path class="st1" d="M110.215,195.793h-20c-1.104,0-2-0.896-2-2v-116c0-12.131,9.869-22,22-22c1.104,0,2,0.896,2,2v136     C112.215,194.897,111.32,195.793,110.215,195.793z M92.215,191.793h16V59.903c-8.987,0.998-16,8.641-16,17.89V191.793z"/>
		</g>
	</g>
	<g>
		<g>
			<path class="st7" d="M195.215,201.793h-100v-20c0-9.941,8.059-18,18-18h64c9.941,0,18,8.059,18,18V201.793z"/>
		</g>
	</g>
	<g>
		<g>
			<path class="st1" d="M197.387,216.793H93.044c-2.663,0-4.829-2.166-4.829-4.828v-7.343c0-2.663,2.166-4.829,4.829-4.829h104.343     c2.663,0,4.829,2.166,4.829,4.829v7.343C202.215,214.627,200.049,216.793,197.387,216.793z M93.044,203.793     c-0.457,0-0.829,0.372-0.829,0.829v7.343c0,0.457,0.372,0.828,0.829,0.828h104.343c0.457,0,0.829-0.372,0.829-0.828v-7.343     c0-0.457-0.372-0.829-0.829-0.829H93.044z"/>
		</g>
	</g>
	<g>
		<g>
			<path class="st1" d="M189.215,236.793h-88c-4.411,0-8-3.589-8-8v-14c0-1.104,0.896-2,2-2h100c1.104,0,2,0.896,2,2v14     C197.215,233.204,193.626,236.793,189.215,236.793z M97.215,216.793v12c0,2.206,1.794,4,4,4h88c2.206,0,4-1.794,4-4v-12H97.215z"/>
		</g>
	</g>
	<g>
		<g>
			<path class="st5" d="M99.215,201.793h-14c-4.418,0-8-3.582-8-8v-34.697c0-4.033,3.27-7.303,7.303-7.303h2.697     c9.941,0,18,8.059,18,18v26C105.215,199.107,102.529,201.793,99.215,201.793z"/>
		</g>
	</g>
	<g>
		<g>
			<path class="st5" d="M205.215,201.793h-14c-3.314,0-6-2.686-6-6v-26c0-9.941,8.059-18,18-18h2.697     c4.033,0,7.303,3.27,7.303,7.303v34.697C213.215,198.211,209.634,201.793,205.215,201.793z"/>
		</g>
	</g>
	<g>
		<g>
			<path class="st1" d="M99.215,203.793h-14c-5.514,0-10-4.486-10-10v-34.697c0-5.13,4.173-9.303,9.303-9.303h2.697     c11.028,0,20,8.972,20,20v26C107.215,200.204,103.626,203.793,99.215,203.793z M84.519,153.793c-2.924,0-5.303,2.379-5.303,5.303     v34.697c0,3.309,2.691,6,6,6h14c2.206,0,4-1.794,4-4v-26c0-8.822-7.178-16-16-16H84.519z"/>
		</g>
	</g>
	<g>
		<g>
			<path class="st1" d="M205.215,203.793h-14c-4.411,0-8-3.589-8-8v-26c0-11.028,8.972-20,20-20h2.697     c5.129,0,9.303,4.173,9.303,9.303v34.697C215.215,199.307,210.729,203.793,205.215,203.793z M203.215,153.793     c-8.822,0-16,7.178-16,16v26c0,2.206,1.794,4,4,4h14c3.309,0,6-2.691,6-6v-34.697c0-2.924-2.379-5.303-5.303-5.303H203.215z"/>
		</g>
	</g>
	<g>
		<g>
			<rect x="118.215" y="41" class="st3" width="8" height="16.793"/>
		</g>
	</g>
	<g>
		<g>
			<rect x="164.215" y="41" class="st3" width="8" height="16.793"/>
		</g>
	</g>
	<g>
		<g>
			<path class="st8" d="M59.649,52.479c-3.372,7.369-8.965,13.508-15.927,17.565c-1.249,0.728-1.249,2.494,0,3.221     c6.962,4.056,12.555,10.196,15.927,17.565c0.655,1.432,2.695,1.432,3.351,0c3.372-7.369,8.965-13.509,15.927-17.565     c1.249-0.728,1.249-2.494,0-3.221c-6.962-4.057-12.555-10.196-15.927-17.565C62.344,51.047,60.304,51.047,59.649,52.479z"/>
		</g>
	</g>
	<g>
		<g>
			<path class="st8" d="M85.111,30.152c-2.36,5.158-6.276,9.456-11.149,12.296c-0.874,0.509-0.874,1.746,0,2.255     c4.873,2.839,8.789,7.137,11.149,12.296c0.459,1.002,1.887,1.002,2.345,0c2.36-5.159,6.275-9.456,11.149-12.296     c0.874-0.509,0.874-1.745,0-2.255c-4.874-2.84-8.789-7.137-11.149-12.296C86.998,29.149,85.57,29.149,85.111,30.152z"/>
		</g>
	</g>
	<g>
		<g>
			<path class="st2" d="M198.616,122.165h-64.802c-2.43,0-4.399-1.97-4.399-4.399v-5.002c0-2.43,1.97-4.399,4.399-4.399h64.802     c2.43,0,4.399,1.97,4.399,4.399v5.002C203.015,120.195,201.046,122.165,198.616,122.165z"/>
		</g>
	</g>
	<g>
		<g>
			<path class="st1" d="M198.616,124.165h-64.802c-3.528,0-6.399-2.871-6.399-6.399v-5.002c0-3.529,2.871-6.399,6.399-6.399h64.802     c3.528,0,6.399,2.871,6.399,6.399v5.002C205.015,121.294,202.145,124.165,198.616,124.165z M133.814,110.365     c-1.323,0-2.399,1.076-2.399,2.399v5.002c0,1.323,1.076,2.399,2.399,2.399h64.802c1.323,0,2.399-1.076,2.399-2.399v-5.002     c0-1.323-1.076-2.399-2.399-2.399H133.814z"/>
		</g>
	</g>
	<g>
		<g>
			<path class="st9" d="M166.215,116.537h-24.15c-1.27,0-2.3,1.03-2.3,2.3v4.722c0,0.884,0.255,1.749,0.734,2.492l8.694,13.486     l5.235,8.956h11.788h11.788l5.235-8.956l8.694-13.486c0.479-0.743,0.734-1.608,0.734-2.492v-4.722c0-1.27-1.03-2.3-2.3-2.3     H166.215z"/>
		</g>
	</g>
	<g>
		<g>
			<path class="st1" d="M178.003,150.493h-23.575c-0.711,0-1.368-0.377-1.727-0.991l-5.235-8.956l-8.648-13.412     c-0.688-1.068-1.053-2.305-1.053-3.576v-4.722c0-2.371,1.929-4.3,4.3-4.3h48.3c2.371,0,4.3,1.929,4.3,4.3v4.722     c0,1.271-0.364,2.507-1.053,3.576l-8.694,13.486l-5.189,8.882C179.371,150.116,178.714,150.493,178.003,150.493z      M155.575,146.493h21.28l4.656-7.965l8.739-13.56c0.271-0.421,0.415-0.908,0.415-1.409v-4.722c0-0.166-0.135-0.3-0.3-0.3h-48.3     c-0.166,0-0.3,0.134-0.3,0.3v4.722c0,0.5,0.144,0.987,0.415,1.409l8.694,13.486L155.575,146.493z"/>
		</g>
	</g>
	<g>
		<g>
			<path class="st9" d="M177.955,156.129h-23.479c-1.27,0-2.3-1.03-2.3-2.3v-3.036c0-1.27,1.03-2.3,2.3-2.3h23.479     c1.27,0,2.3,1.03,2.3,2.3v3.036C180.255,155.099,179.225,156.129,177.955,156.129z"/>
		</g>
	</g>
	<g>
		<g>
			<path class="st1" d="M177.955,158.129h-23.479c-2.371,0-4.3-1.929-4.3-4.3v-3.036c0-2.371,1.929-4.3,4.3-4.3h23.479     c2.371,0,4.3,1.929,4.3,4.3v3.036C182.255,156.2,180.326,158.129,177.955,158.129z M154.476,150.493c-0.166,0-0.3,0.134-0.3,0.3     v3.036c0,0.166,0.134,0.3,0.3,0.3h23.479c0.166,0,0.3-0.135,0.3-0.3v-3.036c0-0.166-0.134-0.3-0.3-0.3H154.476z"/>
		</g>
	</g>
	<g>
		<g>
			<path class="st6" d="M158.165,156.129v10.125c0,1.27,1.03,2.3,2.3,2.3h11.5c1.27,0,2.3-1.03,2.3-2.3v-10.125H158.165z"/>
		</g>
	</g>
	<g>
		<g>
			<path class="st1" d="M171.965,170.554h-11.5c-2.371,0-4.3-1.929-4.3-4.3v-10.125c0-1.104,0.896-2,2-2h16.1c1.104,0,2,0.896,2,2     v10.125C176.266,168.625,174.336,170.554,171.965,170.554z M160.166,158.129v8.125c0,0.166,0.134,0.3,0.3,0.3h11.5     c0.166,0,0.3-0.134,0.3-0.3v-8.125H160.166z"/>
		</g>
	</g>
	<g>
		<g>
			<rect x="161.615" y="168.554" class="st0" width="9.2" height="76.696"/>
		</g>
	</g>
	<g>
		<g>
			<path class="st1" d="M170.815,247.25h-9.2c-1.104,0-2-0.896-2-2v-76.696c0-1.104,0.896-2,2-2h9.2c1.104,0,2,0.896,2,2v76.696     C172.815,246.354,171.92,247.25,170.815,247.25z M163.615,243.25h5.2v-72.696h-5.2V243.25z"/>
		</g>
	</g>
	<g>
		<g>
			<path class="st1" d="M126.215,59.793h-8c-1.104,0-2-0.896-2-2V41c0-1.104,0.896-2,2-2h8c1.104,0,2,0.896,2,2v16.793     C128.215,58.897,127.32,59.793,126.215,59.793z M120.215,55.793h4V43h-4V55.793z"/>
		</g>
	</g>
	<g>
		<g>
			<path class="st1" d="M172.215,59.793h-8c-1.104,0-2-0.896-2-2V41c0-1.104,0.896-2,2-2h8c1.104,0,2,0.896,2,2v16.793     C174.215,58.897,173.32,59.793,172.215,59.793z M166.215,55.793h4V43h-4V55.793z"/>
		</g>
	</g>
	<g>
		<g>
			<path class="st7" d="M173.215,46.75h-56c-5.523,0-10-4.477-10-10v-16c0-5.523,4.477-10,10-10h56c5.523,0,10,4.477,10,10v16     C183.215,42.273,178.738,46.75,173.215,46.75z"/>
		</g>
	</g>
	<g>
		<g>
			<path class="st1" d="M173.215,48.75h-56c-6.617,0-12-5.383-12-12v-16c0-6.617,5.383-12,12-12h56c6.617,0,12,5.383,12,12v16     C185.215,43.367,179.832,48.75,173.215,48.75z M117.215,12.75c-4.411,0-8,3.589-8,8v16c0,4.411,3.589,8,8,8h56     c4.411,0,8-3.589,8-8v-16c0-4.411-3.589-8-8-8H117.215z"/>
		</g>
	</g>
</g>
</svg>
