<svg height="488pt" viewBox="0 -2 488.558 488" width="488pt" xmlns="http://www.w3.org/2000/svg"><path d="m429.246094 218.746094h-366.328125l43.0625-116.523438c7.148437-19.34375 25.375-32.160156 45.734375-32.160156h188.734375c20.359375 0 38.582031 12.816406 45.734375 32.160156zm0 0" fill="#4671c6"/><path d="m100.59375 187.378906 28.253906-76.453125c3.574219-9.671875 12.6875-16.082031 22.867188-16.082031h188.730468c10.183594 0 19.292969 6.410156 22.871094 16.082031l28.253906 76.453125c1.175782 3.1875-1.144531 6.589844-4.5 6.589844h-281.976562c-3.355469 0-5.679688-3.402344-4.5-6.589844zm0 0" fill="#e0ebfc"/><path d="m429.246094 222.746094h-366.328125c-1.308594 0-2.535157-.636719-3.285157-1.710938-.746093-1.074218-.921874-2.445312-.46875-3.671875l43.0625-116.527343c7.6875-20.796876 27.574219-34.773438 49.488282-34.773438h188.730468c21.914063 0 41.800782 13.972656 49.488282 34.773438l43.0625 116.527343c.453125 1.226563.277344 2.597657-.46875 3.671875-.746094 1.070313-1.972656 1.710938-3.28125 1.710938zm-360.585938-8h354.84375l-41.074218-111.136719c-6.53125-17.671875-23.402344-29.542969-41.980469-29.542969h-188.734375c-18.578125 0-35.449219 11.875-41.980469 29.542969zm0 0" fill="#3762cc"/><path d="m470.644531 384.644531h-452.730469c-7.683593 0-13.910156-6.230469-13.910156-13.914062v-35.558594c0-7.6875 6.226563-13.914063 13.910156-13.914063h452.730469c7.683594 0 13.914063 6.226563 13.914063 13.914063v35.558594c0 7.683593-6.230469 13.914062-13.914063 13.914062zm0 0" fill="#6bdddd"/><path d="m470.644531 388.644531h-452.730469c-9.875 0-17.914062-8.035156-17.914062-17.914062v-35.558594c0-9.878906 8.039062-17.914063 17.914062-17.914063h452.726563c9.878906 0 17.917969 8.035157 17.917969 17.914063v35.558594c0 9.878906-8.035156 17.914062-17.914063 17.914062zm-452.730469-63.386719c-5.464843 0-9.914062 4.445313-9.914062 9.914063v35.558594c0 5.464843 4.449219 9.914062 9.914062 9.914062h452.726563c5.46875 0 9.917969-4.449219 9.917969-9.914062v-35.558594c0-5.46875-4.449219-9.914063-9.917969-9.914063zm0 0" fill="#3762cc"/><path d="m73.90625 384.644531v43.832031c0 7.742188 6.1875 14.015626 13.8125 14.015626h39.648438c7.628906 0 13.816406-6.273438 13.816406-14.015626v-43.832031zm0 0" fill="#f9a7a7"/><path d="m127.371094 446.492188h-39.648438c-9.824218 0-17.816406-8.082032-17.816406-18.015626v-43.832031c0-2.207031 1.792969-4 4-4h67.28125c2.207031 0 4 1.792969 4 4v43.832031c-.003906 9.933594-7.996094 18.015626-17.816406 18.015626zm-49.464844-57.847657v39.832031c0 5.523438 4.402344 10.015626 9.8125 10.015626h39.648438c5.414062 0 9.816406-4.492188 9.816406-10.015626v-39.832031zm0 0" fill="#3762cc"/><path d="m354.757812 384.644531v43.832031c0 7.742188 6.1875 14.015626 13.8125 14.015626h39.648438c7.632812 0 13.816406-6.273438 13.816406-14.015626v-43.832031zm0 0" fill="#f9a7a7"/><path d="m408.222656 446.492188h-39.648437c-9.820313 0-17.8125-8.082032-17.8125-18.015626v-43.832031c0-2.207031 1.789062-4 4-4h67.277343c2.207032 0 4 1.792969 4 4v43.832031c-.003906 9.933594-7.996093 18.015626-17.816406 18.015626zm-49.464844-57.847657v39.832031c0 5.523438 4.402344 10.015626 9.8125 10.015626h39.648438c5.414062 0 9.816406-4.492188 9.816406-10.015626v-39.832031zm0 0" fill="#3762cc"/><path d="m470.742188 321.253906c1.132812 0 2.226562.152344 3.277343.410156v-78.976562c0-13.222656-10.566406-23.941406-23.59375-23.941406h-408.6875c-13.03125 0-23.59375 10.71875-23.59375 23.941406v78.566406zm0 0" fill="#4671c6"/><path d="m474.019531 325.667969c-.320312 0-.640625-.039063-.957031-.117188-.804688-.199219-1.5625-.292969-2.316406-.292969h-452.601563c-2.207031 0-4-1.792968-4-4v-78.566406c0-15.40625 12.378907-27.945312 27.59375-27.945312h408.691407c15.210937 0 27.59375 12.539062 27.59375 27.945312v78.976563c0 1.230469-.566407 2.390625-1.535157 3.148437-.710937.554688-1.582031.851563-2.46875.851563zm-451.875-8.410157h447.875v-74.566406c0-10.996094-8.789062-19.945312-19.59375-19.945312h-408.6875c-10.804687 0-19.59375 8.949218-19.59375 19.945312zm0 0" fill="#3762cc"/><path d="m105.65625 310.359375c-21.929688 0-39.773438-18.105469-39.773438-40.355469 0-22.253906 17.84375-40.359375 39.773438-40.359375s39.769531 18.105469 39.769531 40.359375c0 22.25-17.839843 40.355469-39.769531 40.355469zm0 0" fill="#f9a7a7"/><path d="m105.65625 298.164062c-15.304688 0-27.757812-12.632812-27.757812-28.164062s12.453124-28.164062 27.757812-28.164062 27.753906 12.632812 27.753906 28.164062-12.449218 28.164062-27.753906 28.164062zm0 0" fill="#ffea92"/><path d="m386.507812 310.359375c-21.929687 0-39.769531-18.105469-39.769531-40.355469 0-22.253906 17.839844-40.359375 39.769531-40.359375 21.929688 0 39.773438 18.105469 39.773438 40.359375 0 22.25-17.84375 40.355469-39.773438 40.355469zm0 0" fill="#f9a7a7"/><path d="m386.507812 298.164062c-15.304687 0-27.753906-12.632812-27.753906-28.164062s12.449219-28.164062 27.753906-28.164062c15.304688 0 27.757813 12.632812 27.757813 28.164062s-12.453125 28.164062-27.757813 28.164062zm0 0" fill="#ffea92"/><path d="m321.878906 290.652344h-151.59375c-5.34375 0-9.679687-4.335938-9.679687-9.683594v-21.9375c0-5.34375 4.332031-9.679688 9.679687-9.679688h151.589844c5.347656 0 9.683594 4.332032 9.683594 9.679688v21.9375c0 5.347656-4.335938 9.683594-9.679688 9.683594zm0 0" fill="#f9cfcf"/><path d="m426.78125 480.34375h-69c-31.757812 0-57.5-25.746094-57.5-57.5v-69c0-31.757812 25.742188-57.5 57.5-57.5h69c31.753906 0 57.5 25.742188 57.5 57.5v69c0 31.753906-25.746094 57.5-57.5 57.5zm0 0" fill="#f9a7a7"/><path d="m357.605469 460.339844c-20.675781 0-37.5-16.824219-37.5-37.5v-69c0-20.679688 16.824219-37.5 37.5-37.5h69c20.679687 0 37.5 16.820312 37.5 37.5v69c0 20.675781-16.820313 37.5-37.5 37.5zm0 0" fill="#ffea92"/><path d="m426.78125 484.34375h-69c-33.914062 0-61.5-27.589844-61.5-61.5v-69c0-33.914062 27.585938-61.5 61.5-61.5h69c33.910156 0 61.5 27.585938 61.5 61.5v69c0 33.910156-27.589844 61.5-61.5 61.5zm-69-184c-29.5 0-53.5 24-53.5 53.5v69c0 29.5 24 53.5 53.5 53.5h69c29.5 0 53.5-24 53.5-53.5v-69c0-29.5-24-53.5-53.5-53.5zm0 0" fill="#3762cc"/><path d="m438.128906 345.777344c-17.246094 0-32.402344-8.035156-41.253906-20.199219-1.816406-2.492187-5.757812-2.492187-7.574219 0-8.851562 12.167969-24.03125 20.199219-41.285156 20.199219-2.976563 0-5.890625-.246094-8.722656-.707032-1.367188-.222656-2.617188.75-2.617188 2.015626v32.832031c0 26.8125 16.0625 51.519531 41.964844 64.550781l1.085937.546875c4.058594 2.042969 8.625 3.113281 13.269532 3.113281 4.644531 0 9.210937-1.070312 13.269531-3.113281l1.085937-.546875c25.902344-13.03125 41.964844-37.738281 41.964844-64.550781v-32.804688c0-1.292969-1.296875-2.230469-2.699218-2.003906-2.757813.433594-5.59375.667969-8.488282.667969zm0 0" fill="#f9a7a7"/><path d="m392.996094 436.128906c-2.773438 0-5.496094-.632812-7.882813-1.835937l-1.066406-.539063c-21.816406-10.972656-35.371094-31.605468-35.371094-53.839844v-22.035156l3.734375-.25c14.210938-.9375 27.714844-6.472656 38.027344-15.585937l2.648438-2.34375 2.648437 2.34375c10.265625 9.078125 23.707031 14.609375 37.855469 15.578125l3.722656.253906v22.039062c0 22.234376-13.546875 42.863282-35.359375 53.835938l-1.09375.550781c-2.375 1.199219-5.09375 1.828125-7.863281 1.828125zm0 0" fill="#6bdddd"/><path d="m384.046875 433.757812 1.066406.539063c2.269531 1.140625 4.851563 1.753906 7.480469 1.8125v-48.085937h-43.308594c2.851563 19.046874 15.625 36.105468 34.761719 45.734374zm0 0" fill="#4671c6"/><path d="m395.738281 342.046875-2.648437-2.34375-.492188.433594v47.886719h44.109375c.402344-2.667969.609375-5.375.609375-8.109376v-22.039062l-3.726562-.253906c-14.148438-.964844-27.589844-6.496094-37.851563-15.574219zm0 0" fill="#4671c6"/><g fill="#ffea92"><path d="m38.007812 46.4375c-6.742187 14.738281-17.929687 27.015625-31.855468 35.128906-2.496094 1.457032-2.496094 4.988282 0 6.441406 13.925781 8.113282 25.113281 20.390626 31.855468 35.128907 1.308594 2.867187 5.390626 2.867187 6.703126 0 6.742187-14.738281 17.929687-27.015625 31.851562-35.128907 2.5-1.457031 2.5-4.988281 0-6.441406-13.921875-8.113281-25.109375-20.390625-31.851562-35.128906-1.3125-2.867188-5.394532-2.867188-6.703126 0zm0 0"/><path d="m88.933594 1.78125c-4.71875 10.316406-12.550782 18.914062-22.296875 24.59375-1.75 1.015625-1.75 3.492188 0 4.507812 9.746093 5.679688 17.578125 14.273438 22.296875 24.59375.917968 2.003907 3.773437 2.003907 4.691406 0 4.71875-10.320312 12.550781-18.914062 22.296875-24.59375 1.75-1.015624 1.75-3.488281 0-4.507812-9.746094-5.679688-17.578125-14.273438-22.296875-24.59375-.917969-2.003906-3.773438-2.003906-4.691406 0zm0 0"/></g></svg>