<svg id="Layer_3" height="512" viewBox="0 0 512 512" width="512" xmlns="http://www.w3.org/2000/svg" data-name="Layer 3"><path d="m56 192 32.983-105.545a32 32 0 0 1 30.543-22.455h247.489a32 32 0 0 1 31.045 24.239l25.94 103.761z" fill="#90e3f5"/><circle cx="40" cy="40" fill="#90e3f5" r="24"/><path d="m451.636 33.009 13.678-25.009 13.677 25.009 25.009 13.677-25.009 13.678-13.677 25.009-13.678-25.009-25.009-13.678z" fill="#f69038"/><path d="m187.636 451.636 13.678-25.009 13.677 25.009 25.009 13.678-25.009 13.677-13.677 25.009-13.678-25.009-25.009-13.677z" fill="#90e3f5"/><path d="m257.009 113.009 13.677-25.009 13.678 25.009 25.009 13.677-25.009 13.678-13.678 25.009-13.677-25.009-25.009-13.678z" fill="#f69038"/><path d="m301.571 384h-263.571a30 30 0 0 1 -30-30v-132a30 30 0 0 1 30-30h404a30 30 0 0 1 30 30v138" fill="#f69038"/><path d="m56 384h88a0 0 0 0 1 0 0v28a20 20 0 0 1 -20 20h-48a20 20 0 0 1 -20-20v-28a0 0 0 0 1 0 0z" fill="#7a3909"/><circle cx="72" cy="256" fill="#076372" r="32"/><path d="m385.008 248a32 32 0 1 1 54.992 29.166" fill="#076372"/><path d="m48 328h288v32h-288z" fill="#7a3909"/><path d="m63.5 168h-55.5v-40h40l23.172 15.448z" fill="#f69038"/><path d="m418 168h62v-40h-40l-27.429 18.286z" fill="#f69038"/><path d="m304 280h-160v-32h192" fill="#7a3909"/><path d="m432.471 332.915 7.351-48.169a30 30 0 0 0 -29.232-36.746h-76.577a30 30 0 0 0 -29.232 36.746l13.963 60.508a30 30 0 0 1 0 13.492l-8.14 35.273-5.824 25.235a30 30 0 0 0 29.233 36.746h41.987z" fill="#0f8ca8"/><path d="m181.381 92.651h217.782l-1.1-4.412a32 32 0 0 0 -31.048-24.239h-247.489a32 32 0 0 0 -30.543 22.455l-32.983 105.545h44s17.121-94.4 81.381-99.349z" fill="#fafcfc" opacity=".3"/><path d="m331.643 419.254 5.824-25.235 8.14-35.273a30 30 0 0 0 0-13.492l-13.964-60.508a30 30 0 0 1 29.231-36.746h-26.861a30 30 0 0 0 -29.232 36.746l13.963 60.508a30 30 0 0 1 0 13.492l-8.14 35.273-5.823 25.235a30 30 0 0 0 29.232 36.746h26.861a30 30 0 0 1 -29.231-36.746z" fill="#1cb9d3"/><path d="m392 512v-40c-32-24-32-56-32-56l-40-16c-32-16-24-48-24-48l88 24 49.33-43.849a20 20 0 0 1 32.261 8.624l21.382 66.978a20 20 0 0 1 -1.608 16.247l-21.365 40v48" fill="#f9ac78"/><path d="m40.064 254a30 30 0 0 1 30-30h401.936v-2a30 30 0 0 0 -30-30h-404a30 30 0 0 0 -30 30v132a30 30 0 0 0 30 30h2.064z" fill="#fafcfc" opacity=".3"/><path d="m40 72a32 32 0 1 0 -32-32 32.036 32.036 0 0 0 32 32zm0-48a16 16 0 1 1 -16 16 16.018 16.018 0 0 1 16-16z"/><path d="m507.839 39.668-22.953-12.554-12.553-22.953a8 8 0 0 0 -14.038 0l-12.553 22.953-22.953 12.554a8 8 0 0 0 0 14.037l22.953 12.554 12.553 22.953a8 8 0 0 0 14.038 0l12.553-22.953 22.953-12.554a8 8 0 0 0 0-14.037zm-32.687 13.678a8 8 0 0 0 -3.18 3.18l-6.659 12.174-6.658-12.175a8 8 0 0 0 -3.18-3.18l-12.175-6.658 12.175-6.659a8 8 0 0 0 3.18-3.18l6.658-12.175 6.659 12.175a8 8 0 0 0 3.18 3.18l12.175 6.659z"/><path d="m220.886 445.741-12.553-22.953a8 8 0 0 0 -14.038 0l-12.553 22.953-22.953 12.554a8 8 0 0 0 0 14.037l22.953 12.554 12.553 22.953a8 8 0 0 0 14.038 0l12.553-22.953 22.953-12.554a8 8 0 0 0 0-14.037zm-9.733 26.231a8 8 0 0 0 -3.18 3.18l-6.659 12.175-6.658-12.175a8 8 0 0 0 -3.18-3.18l-12.176-6.659 12.175-6.659a8 8 0 0 0 3.18-3.18l6.658-12.175 6.659 12.175a8 8 0 0 0 3.18 3.18l12.175 6.659z"/><path d="m313.211 119.668-22.953-12.554-12.552-22.953a8 8 0 0 0 -14.038 0l-12.553 22.953-22.953 12.554a8 8 0 0 0 0 14.037l22.953 12.554 12.553 22.953a8 8 0 0 0 14.038 0l12.553-22.953 22.953-12.554a8 8 0 0 0 0-14.037zm-32.687 13.678a8 8 0 0 0 -3.18 3.18l-6.657 12.174-6.659-12.175a8 8 0 0 0 -3.18-3.18l-12.175-6.659 12.175-6.659a8 8 0 0 0 3.18-3.18l6.659-12.175 6.658 12.175a8 8 0 0 0 3.18 3.18l12.175 6.659z"/><path d="m184 24h16v16h-16z"/><path d="m56 464h16v16h-16z"/><path d="m38 392h10v20a28.031 28.031 0 0 0 28 28h48a28.031 28.031 0 0 0 28-28v-20h145.5a49.622 49.622 0 0 0 4.26 4.78l-4.771 20.675a38 38 0 0 0 37.024 46.545h37.8a93.52 93.52 0 0 0 12.187 11.9v36.1h16v-40a8 8 0 0 0 -3.2-6.4c-28.165-21.124-28.787-48.488-28.8-49.6a8 8 0 0 0 -5.029-7.428l-39.679-15.872c-16.471-8.369-19.881-21.811-20.186-30.47l78.79 21.487a8 8 0 0 0 7.42-1.738l49.331-43.85a12 12 0 0 1 19.342 5.131l21.365 66.925c.01.033.021.065.032.1a12.01 12.01 0 0 1 -.965 9.747c-.038.066-.075.134-.111.2l-21.365 40a8 8 0 0 0 -.945 3.768v48h16v-46l20.372-38.141a28.033 28.033 0 0 0 2.209-22.587l-14.581-45.672v-137.6a38.043 38.043 0 0 0 -38-38h-11.754l-2-8h51.754a8 8 0 0 0 8-8v-40a8 8 0 0 0 -8-8h-40a8 8 0 0 0 -4.437 1.344l-17.983 11.989-11.759-47.033a39.941 39.941 0 0 0 -38.806-30.3h-247.489a39.827 39.827 0 0 0 -38.179 28.069l-14.624 46.8-14.285-9.523a8 8 0 0 0 -4.438-1.346h-40a8 8 0 0 0 -8 8v40a8 8 0 0 0 8 8h44.619l-2.5 8h-12.119a38.043 38.043 0 0 0 -38 38v132a38.043 38.043 0 0 0 38 38zm98 20a12.013 12.013 0 0 1 -12 12h-48a12.013 12.013 0 0 1 -12-12v-20h72zm216.45 9.6a80.737 80.737 0 0 0 8.55 26.4h-26.987a22 22 0 0 1 -21.437-26.947l3.277-14.2c.193.1.374.2.569.3s.4.19.606.272zm-54.35-77.318a8 8 0 0 0 -9.866 5.777c-.153.611-.29 1.266-.42 1.94h-231.814v-15.999h252.4l2.551 11.053c.059.257.106.516.155.775zm83.819 22.859-54.419-14.841a38.063 38.063 0 0 0 -.959-8.844l-13.963-60.508a22 22 0 0 1 21.435-26.948h76.577a22 22 0 0 1 21.437 26.947q-.067.294-.113.592l-6.914 45.314zm-85.443-95.141h-144.476v-16h151.031a37.8 37.8 0 0 0 -6.555 16zm114.114-32h-12.476a24 24 0 0 1 41.786 13.832 37.786 37.786 0 0 0 -29.31-13.832zm31.833-104h29.577v24h-47.754l-2.546-10.185zm-426.423 24v-24h29.578l16.172 10.781-4.131 13.219zm80.619-71.159a23.9 23.9 0 0 1 22.907-16.841h247.489a23.965 23.965 0 0 1 23.285 18.18l23.454 93.82h-346.873zm-80.619 133.159a22.025 22.025 0 0 1 22-22h404a22.025 22.025 0 0 1 22 22v103.151a27.967 27.967 0 0 0 -21.372-5.764l5.06-33.153a38.33 38.33 0 0 0 .881-7.022 40 40 0 1 0 -69.238-39.212h-235.331a8 8 0 0 0 -8 8v32a8 8 0 0 0 8 8h153.322l7.385 32h-256.707a8 8 0 0 0 -8 8v32a8 8 0 0 0 8 8h239.52a52.436 52.436 0 0 0 1.74 8h-251.26a22.025 22.025 0 0 1 -22-22z"/><path d="m72 296a40 40 0 1 0 -40-40 40.046 40.046 0 0 0 40 40zm0-64a24 24 0 1 1 -24 24 24.027 24.027 0 0 1 24-24z"/></svg>