<svg height="496pt" viewBox="0 0 496 496" width="496pt" xmlns="http://www.w3.org/2000/svg"><path d="m488 248c0 132.546875-107.453125 240-240 240s-240-107.453125-240-240 107.453125-240 240-240 240 107.453125 240 240zm0 0" fill="#85d3c1"/><path d="m272 232h32v32h-32zm0 0" fill="#f9d48a"/><g fill="#f5f7fa"><path d="m304 264v32h-64v-96h64v32h-32v32zm0 0"/><path d="m208 184v128c0 4.398438-3.601562 8-8 8h-88c-4.398438 0-8.398438-1.761719-11.28125-4.71875-2.957031-2.882812-4.71875-6.882812-4.71875-11.28125 0-8.800781 7.199219-16 16-16h64v-80h-64c-4.398438 0-8.398438-1.761719-11.28125-4.71875-2.957031-2.882812-4.71875-6.882812-4.71875-11.28125 0-8.800781 7.199219-16 16-16h88c4.398438 0 8 3.601562 8 8zm0 0"/><path d="m336 296v8c0 4.398438-3.601562 8-8 8h-16c-4.398438 0-8-3.601562-8-8v-112c0-4.398438 3.601562-8 8-8h16c4.398438 0 8 3.601562 8 8zm0 0"/></g><path d="m488 248c0 16.480469-1.679688 32.480469-4.800781 48h-147.199219v-96h147.121094c3.199218 15.519531 4.878906 31.519531 4.878906 48zm0 0" fill="#ff958a"/><path d="m112 208h64v80h-164.558594c-2.320312-13.039062-3.441406-26.398438-3.441406-40s1.121094-26.960938 3.359375-40zm0 0" fill="#ff958a"/><path d="m384 400v45.679688c-38.640625 26.71875-85.519531 42.320312-136 42.320312s-97.359375-15.601562-136-42.320312v-45.679688zm0 0" fill="#f9d48a"/><path d="m400 368v32h-304v-32c0-8.800781 7.199219-16 16-16h272c8.800781 0 16 7.199219 16 16zm0 0" fill="#f5f7fa"/><path d="m368 296v56h-240v-32h72c4.398438 0 8-3.601562 8-8v-128c0-4.398438-3.601562-8-8-8h-72v-24c0-17.679688 14.320312-32 32-32h176c17.679688 0 32 14.320312 32 32v48h-32v-8c0-4.398438-3.601562-8-8-8h-16c-4.398438 0-8 3.601562-8 8v8h-64v96h64v8c0 4.398438 3.601562 8 8 8h16c4.398438 0 8-3.601562 8-8v-8zm0 0" fill="#f9d48a"/><path d="m344 28v44c0 8.800781-7.199219 16-16 16h-160c-8.800781 0-16-7.199219-16-16v-48c0-8.800781 7.199219-16 16-16h160c8.800781 0 16 7.199219 16 16zm0 0" fill="#f9d48a"/><path d="m296 88h32v32h-32zm0 0" fill="#f5f7fa"/><path d="m168 88h32v32h-32zm0 0" fill="#f5f7fa"/><path d="m351.886719 22.894531c-.589844-12.710937-11.03125-22.894531-23.886719-22.894531h-160c-12.855469 0-23.296875 10.183594-23.886719 22.894531-87.671875 40.519531-144.113281 128.234375-144.113281 225.105469 0 136.753906 111.257812 248 248 248s248-111.246094 248-248c0-96.871094-56.441406-184.585938-144.113281-225.105469zm121.128906 169.105469h-97.015625v-40c0-22.054688-17.945312-40-40-40v-17.472656c9.289062-3.3125 16-12.113282 16-22.527344v-31.304688c61.113281 30.6875 104.847656 86.328126 121.015625 151.304688zm6.984375 56c0 13.648438-1.246094 26.992188-3.519531 40h-132.480469v-80h132.390625c2.289063 13.078125 3.609375 26.425781 3.609375 40zm-376 144v-24c0-4.414062 3.59375-8 8-8h272c4.40625 0 8 3.585938 8 8v24zm32-48v-16h64c8.824219 0 16-7.175781 16-16v-128c0-8.824219-7.175781-16-16-16h-64v-16c0-13.230469 10.769531-24 24-24h176c13.230469 0 24 10.769531 24 24v40h-16c0-8.824219-7.175781-16-16-16h-16c-8.824219 0-16 7.175781-16 16h-64v112h64c0 8.824219 7.175781 16 16 16h16c8.824219 0 16-7.175781 16-16h16v40zm-120-96c0-10.816406.816406-21.488281 2.28125-32h85.71875v24h16v-24h48v64h-48v-24h-16v24h-85.742188c-1.449218-10.472656-2.257812-21.136719-2.257812-32zm96 48h72v-96h-72c-4.40625 0-8-3.585938-8-8s3.59375-8 8-8h88v128h-88c-4.40625 0-8-3.585938-8-8s3.59375-8 8-8zm64-200h16v16h-16zm144 16h-16v-16h16zm-32 0h-80v-16h80zm40.007812 192h-16.007812v-112h16zm-32.007812-48h-16v-16h16zm0-32h-32v48h32v16h-48v-80h48zm-136-200c0-4.414062 3.59375-8 8-8h160c4.40625 0 8 3.585938 8 8v48c0 4.414062-3.59375 8-8 8h-160c-4.40625 0-8-3.585938-8-8zm-16 16.695312v31.304688c0 10.414062 6.710938 19.214844 16 22.527344v17.472656c-22.054688 0-40 17.945312-40 40v16h-8c-13.230469 0-24 10.769531-24 24 0 2.816406.574219 5.488281 1.472656 8h-68.375c14.453125-68.398438 59.292969-127.367188 122.902344-159.304688zm-122.976562 255.304688h68.449218c-.898437 2.511719-1.472656 5.183594-1.472656 8 0 13.230469 10.769531 24 24 24h8v16h-8c-13.230469 0-24 10.769531-24 24v40h16v21.695312c-41.574219-33.015624-71.617188-79.933593-82.976562-133.695312zm98.976562 145.367188v-33.367188h256v33.367188c-36.710938 24.386718-80.71875 38.632812-128 38.632812s-91.289062-14.246094-128-38.632812zm272-11.671876v-21.695312h16v-40c0-13.230469-10.769531-24-24-24h-8v-40h97.128906c-12.542968 50.414062-41.632812 94.328125-81.128906 125.695312zm0 0" fill="#232323"/></svg>